<?xml version="1.0" encoding="UTF-8"?>
<svg id="Layer_2" data-name="Layer 2" xmlns="http://www.w3.org/2000/svg" viewBox="0 0 866.36 960.8">
  <defs>
    <style>
      .cls-1 {
        fill: #1c78c0;
      }

      .cls-2 {
        fill: #8ed6fb;
      }
    </style>
  </defs>
  <g id="svg56">
    <g>
      <path id="path50" class="cls-2" d="m839.68,740.51l-389.4,220.29v-171.54l242.63-133.5,146.78,84.75Zm26.67-24.12V255.77l-142.44,82.32v296.1l142.44,82.19Zm-839.68,24.12l389.4,220.29v-171.54l-242.75-133.5-146.65,84.75Zm-26.67-24.12V255.77l142.44,82.32v296.1L0,716.39ZM16.72,225.91L416.08,0v165.79l-255.9,140.78-2.04,1.15L16.72,225.91Zm832.92,0L450.28,0v165.79l255.9,140.65,2.04,1.15,141.41-81.68Z"/>
      <path id="path52" class="cls-1" d="m416.08,750.21l-239.44-131.72v-260.75l239.44,138.22v254.24Zm34.21,0l239.44-131.59v-260.88l-239.44,138.22v254.24ZM192.85,327.63l240.33-132.1,240.33,132.1-240.33,138.73-240.33-138.73Z"/>
    </g>
  </g>
</svg>